<svg width="32" height="32" viewBox="0 0 32 32" fill="none" xmlns="http://www.w3.org/2000/svg">
  <rect width="32" height="32" rx="8" fill="#0f172a"/>
  <path d="M8 12C8 10.8954 8.89543 10 10 10H14C17.3137 10 20 12.6863 20 16C20 19.3137 17.3137 22 14 22H12V20H14C16.2091 20 18 18.2091 18 16C18 13.7909 16.2091 12 14 12H10V20H8V12Z" fill="white"/>
  <path d="M22 12C22 10.8954 22.8954 10 24 10C25.1046 10 26 10.8954 26 12V20C26 21.1046 25.1046 22 24 22C22.8954 22 22 21.1046 22 20V12Z" fill="white"/>
</svg>
